<svg xmlns="http://www.w3.org/2000/svg" width="26" height="26" viewBox="0 0 26 26">
  <path id="Icon_ionic-ios-settings" data-name="Icon ionic-ios-settings" d="M28.354,17.5A3.345,3.345,0,0,1,30.5,14.376a13.256,13.256,0,0,0-1.6-3.865,3.391,3.391,0,0,1-1.361.291,3.338,3.338,0,0,1-3.054-4.7,13.223,13.223,0,0,0-3.859-1.6,3.343,3.343,0,0,1-6.243,0,13.264,13.264,0,0,0-3.866,1.6,3.338,3.338,0,0,1-3.054,4.7A3.281,3.281,0,0,1,6.1,10.511a13.549,13.549,0,0,0-1.6,3.872,3.344,3.344,0,0,1,.007,6.241,13.256,13.256,0,0,0,1.6,3.865A3.339,3.339,0,0,1,10.519,28.9a13.341,13.341,0,0,0,3.866,1.6,3.337,3.337,0,0,1,6.229,0,13.264,13.264,0,0,0,3.866-1.6,3.343,3.343,0,0,1,4.408-4.407,13.334,13.334,0,0,0,1.6-3.865A3.361,3.361,0,0,1,28.354,17.5ZM17.561,22.905a5.415,5.415,0,1,1,5.417-5.415A5.414,5.414,0,0,1,17.561,22.905Z" transform="translate(-4.5 -4.5)" fill="#13252c"/>
</svg>
