<svg xmlns="http://www.w3.org/2000/svg" viewBox="0 0 12.33 17.83"><defs><style>.a{fill:#fff;}</style></defs><path class="a" d="M6.22,0A6.76,6.76,0,0,0,.11,3.34a.62.62,0,0,0,.14.85L2.07,5.57a.62.62,0,0,0,.87-.11c.94-1.19,1.58-1.87,3-1.87,1.07,0,2.4.69,2.4,1.72,0,.79-.65,1.19-1.7,1.79-1.24.69-2.87,1.55-2.87,3.7V11a.63.63,0,0,0,.63.62H7.34A.63.63,0,0,0,8,11v-.07c0-1.49,4.36-1.55,4.36-5.59,0-3-3.16-5.35-6.11-5.35Z"/><path class="a" d="M5.87,13a2.41,2.41,0,1,0,2.41,2.41h0A2.42,2.42,0,0,0,5.87,13Z"/></svg>