<svg xmlns="http://www.w3.org/2000/svg" width="350" height="64.058" viewBox="0 0 350 64.058"><g transform="translate(-0.042)"><path d="M20.867,45.507v4.136H14.61a2.074,2.074,0,0,0,0,4.136H43.62a2.074,2.074,0,0,0,0-4.136H37.41V45.507h0L47.756,29.682,31.212,0H30.175l1.037,24.827h6.2l-4.136,4.855.978,5.668-5.114-2.7-5.1,2.7.978-5.7-4.136-4.855h6.21L28.1,0H27.076L10.58,29.682Z" transform="translate(1.879)"/><path d="M41.045,4.92l3.37,5.832a25.7,25.7,0,0,1,13.342,25.2A26.181,26.181,0,0,1,39.289,57.941V56.1a.914.914,0,0,0-.919-.9H23.665a.914.914,0,0,0-.919.9v1.842a26.178,26.178,0,0,1-18.427-22A25.706,25.706,0,0,1,17.667,10.763l3.37-5.843A30.008,30.008,0,0,0,.056,34.146,30.169,30.169,0,0,0,22.8,62.113a31.929,31.929,0,0,0,27.024-5.062,29.58,29.58,0,0,0,12.214-23.8,30.035,30.035,0,0,0-21-28.33Z" transform="translate(0 0.877)"/><path d="M66.79,18.81h9.1a13.28,13.28,0,0,1,6.08,1.4,9.91,9.91,0,0,1,4.112,3.818,10.723,10.723,0,0,1,1.473,5.609,10.77,10.77,0,0,1-1.473,5.632,9.815,9.815,0,0,1-4.112,3.794,13.126,13.126,0,0,1-6.08,1.355h-9.1Zm8.92,18.912a9.945,9.945,0,0,0,4.607-1.013,7.247,7.247,0,0,0,3.064-2.852,8.837,8.837,0,0,0,0-8.484,7.4,7.4,0,0,0-3.064-2.8,10.086,10.086,0,0,0-4.607-1.013H69.818V37.722Z" transform="translate(11.079 2.296)"/><path d="M106.707,37.722V40.4H91V18.81h15.318V21.5h-12.2v6.634H104.94v2.616H94.123v6.976Z" transform="translate(15.115 2.297)"/><path d="M113.065,39.923a9.521,9.521,0,0,1-3.535-1.956l1.178-2.357a9.261,9.261,0,0,0,3.158,1.8,11.677,11.677,0,0,0,3.959.7,7.235,7.235,0,0,0,4.018-.907,2.8,2.8,0,0,0,1.32-2.427,2.357,2.357,0,0,0-.719-1.8,4.925,4.925,0,0,0-1.791-1.06c-.707-.247-1.709-.53-3-.837a30.706,30.706,0,0,1-3.936-1.178,6.41,6.41,0,0,1-2.557-1.8,4.784,4.784,0,0,1-1.072-3.288A5.55,5.55,0,0,1,111,21.683a6.21,6.21,0,0,1,2.757-2.215,11.159,11.159,0,0,1,4.6-.837,14.509,14.509,0,0,1,3.761.5,9.863,9.863,0,0,1,3.179,1.425l-1.072,2.427a10.734,10.734,0,0,0-2.9-1.308,10.463,10.463,0,0,0-3.017-.448,6.657,6.657,0,0,0-3.936.954,2.934,2.934,0,0,0-1.308,2.463,2.357,2.357,0,0,0,.742,1.8,4.925,4.925,0,0,0,1.826,1.084,26.844,26.844,0,0,0,2.981.813,31.3,31.3,0,0,1,3.912,1.178,6.551,6.551,0,0,1,2.545,1.791,4.713,4.713,0,0,1,1.072,3.24,5.6,5.6,0,0,1-.931,3.1,6.2,6.2,0,0,1-2.8,2.215,11.677,11.677,0,0,1-4.631.813A14.658,14.658,0,0,1,113.065,39.923Z" transform="translate(18.19 2.263)"/><path d="M130.05,18.81h3.087V40.4H130.05Z" transform="translate(21.661 2.297)"/><path d="M156.009,29.525h2.969v8.4a11.394,11.394,0,0,1-3.724,2.038,14.022,14.022,0,0,1-4.442.707,12.078,12.078,0,0,1-5.892-1.426A10.6,10.6,0,0,1,140.8,35.3a11.477,11.477,0,0,1,0-11.335,10.5,10.5,0,0,1,4.136-3.947,12.36,12.36,0,0,1,5.892-1.426,12.514,12.514,0,0,1,4.713.848,9.662,9.662,0,0,1,3.594,2.486l-1.909,1.909a8.731,8.731,0,0,0-6.269-2.5,9.014,9.014,0,0,0-4.419,1.072,7.812,7.812,0,0,0-3.075,2.958,8.72,8.72,0,0,0,0,8.507,7.871,7.871,0,0,0,3.075,2.981,8.955,8.955,0,0,0,4.4,1.072,9.179,9.179,0,0,0,5.055-1.379Z" transform="translate(23.12 2.258)"/><path d="M182.182,18.81V40.4h-2.533L166.687,24.3V40.4H163.6V18.81h2.533l12.962,16.108V18.81Z" transform="translate(27.162 2.297)"/><path d="M189.365,39.923a9.58,9.58,0,0,1-3.535-1.956l1.178-2.357a9.427,9.427,0,0,0,3.17,1.8,11.677,11.677,0,0,0,3.959.7,7.164,7.164,0,0,0,4.006-.907,2.816,2.816,0,0,0,1.331-2.427,2.357,2.357,0,0,0-.731-1.8,4.819,4.819,0,0,0-1.791-1.06c-.707-.247-1.709-.53-3-.837a30.46,30.46,0,0,1-3.924-1.178,6.457,6.457,0,0,1-2.569-1.8,4.831,4.831,0,0,1-1.06-3.288,5.633,5.633,0,0,1,.907-3.123,6.351,6.351,0,0,1,2.757-2.215,11.241,11.241,0,0,1,4.6-.837,14.529,14.529,0,0,1,3.771.495,9.91,9.91,0,0,1,3.17,1.426l-1.013,2.463a11.065,11.065,0,0,0-2.9-1.308,10.534,10.534,0,0,0-3.028-.448,6.646,6.646,0,0,0-3.924.954,2.946,2.946,0,0,0-1.32,2.463,2.357,2.357,0,0,0,.742,1.8,5.067,5.067,0,0,0,1.838,1.084,26.842,26.842,0,0,0,2.981.813,32.594,32.594,0,0,1,3.912,1.178,6.551,6.551,0,0,1,2.463,1.756,4.713,4.713,0,0,1,1.06,3.24,5.585,5.585,0,0,1-.919,3.1,6.269,6.269,0,0,1-2.8,2.215,11.783,11.783,0,0,1-4.631.813,14.658,14.658,0,0,1-4.69-.754Z" transform="translate(30.867 2.263)"/><path d="M210.85,21.5h-7.4V18.81H221.3V21.5h-7.4V40.35H210.85Z" transform="translate(33.785 2.298)"/><path d="M225.989,38.182a9.709,9.709,0,0,1-2.416-7.07V18.81h3.087V30.97q0,6.929,6.08,6.929a5.892,5.892,0,0,0,4.537-1.709,7.576,7.576,0,0,0,1.567-5.22V18.81h2.993V31.088a9.733,9.733,0,0,1-2.357,7.07,10.428,10.428,0,0,1-13.445,0Z" transform="translate(37.12 2.292)"/><path d="M247.05,18.81h9.1a13.28,13.28,0,0,1,6.08,1.4,9.981,9.981,0,0,1,4.112,3.818,10.723,10.723,0,0,1,1.473,5.609,10.769,10.769,0,0,1-1.473,5.632,9.885,9.885,0,0,1-4.112,3.794,13.126,13.126,0,0,1-6.08,1.355h-9.1Zm8.92,18.912a9.945,9.945,0,0,0,4.607-1.025,7.318,7.318,0,0,0,3.064-2.852,8.838,8.838,0,0,0,0-8.484,7.47,7.47,0,0,0-3.064-2.852A10.086,10.086,0,0,0,255.97,21.5h-5.892V37.722Z" transform="translate(40.565 2.296)"/><path d="M271.29,18.81h3.087V40.4H271.29Z" transform="translate(44.887 2.297)"/><path d="M286.139,39.257a10.6,10.6,0,0,1-4.112-3.971,11.394,11.394,0,0,1,0-11.288,10.6,10.6,0,0,1,4.112-3.959,12.714,12.714,0,0,1,11.783,0,10.523,10.523,0,0,1,4.112,3.947,11.618,11.618,0,0,1,0,11.324,10.523,10.523,0,0,1-4.112,3.947A12.808,12.808,0,0,1,286.139,39.257ZM296.308,36.9A7.906,7.906,0,0,0,299.3,33.92a8.837,8.837,0,0,0,0-8.484,7.954,7.954,0,0,0-2.993-2.969,8.543,8.543,0,0,0-4.277-1.084,8.673,8.673,0,0,0-4.3,1.084,7.883,7.883,0,0,0-3.028,2.969,8.838,8.838,0,0,0,0,8.484,7.836,7.836,0,0,0,3.028,2.981,8.661,8.661,0,0,0,4.3,1.072,8.543,8.543,0,0,0,4.277-1.108Z" transform="translate(46.535 2.258)"/></g></svg>