<svg xmlns="http://www.w3.org/2000/svg" width="150" height="58.121" viewBox="0 0 150 58.121"><g transform="translate(-151.321 -519.574)"><g transform="translate(221.233 533.938)"><path d="M307.066,576.67l-5.361-7.742h-5.916v7.742h-6.433V548.876h12.032a15.452,15.452,0,0,1,6.413,1.231,9.528,9.528,0,0,1,4.189,3.494,9.627,9.627,0,0,1,1.469,5.361,9.054,9.054,0,0,1-5.718,8.775l6.234,8.934Zm-1.628-21.3a6.76,6.76,0,0,0-4.407-1.25h-5.241v9.689h5.241a6.679,6.679,0,0,0,4.407-1.271,5.011,5.011,0,0,0,0-7.168Z" transform="translate(-289.356 -548.399)"/><path d="M364.686,576.67l-5.36-7.742H353.41v7.742h-6.433V548.876h12.031a15.45,15.45,0,0,1,6.413,1.231,9.532,9.532,0,0,1,4.189,3.494,9.63,9.63,0,0,1,1.469,5.361,9.054,9.054,0,0,1-5.718,8.775l6.234,8.934Zm-1.628-21.3a6.762,6.762,0,0,0-4.407-1.25H353.41v9.689h5.241a6.681,6.681,0,0,0,4.407-1.271,5.011,5.011,0,0,0,0-7.168Z" transform="translate(-317.793 -548.399)"/><path d="M406.8,575.789a14.947,14.947,0,0,1-4.943-2.323l2.184-4.844a14.821,14.821,0,0,0,4.248,2.1,15.96,15.96,0,0,0,4.924.794,7.861,7.861,0,0,0,4.05-.814,2.459,2.459,0,0,0,1.31-2.164,2.068,2.068,0,0,0-.774-1.648,5.884,5.884,0,0,0-1.985-1.052q-1.212-.4-3.276-.874a45.048,45.048,0,0,1-5.2-1.509,8.444,8.444,0,0,1-3.475-2.422,6.537,6.537,0,0,1-1.449-4.447,7.738,7.738,0,0,1,1.311-4.388,8.81,8.81,0,0,1,3.951-3.116,16.118,16.118,0,0,1,6.453-1.152,21.394,21.394,0,0,1,5.2.635,15.377,15.377,0,0,1,4.447,1.827l-1.985,4.884a15.5,15.5,0,0,0-7.7-2.183,7.221,7.221,0,0,0-3.991.874,2.666,2.666,0,0,0-1.291,2.3,2.252,2.252,0,0,0,1.489,2.125,23.371,23.371,0,0,0,4.547,1.37,45.4,45.4,0,0,1,5.2,1.508,8.627,8.627,0,0,1,3.474,2.383,6.391,6.391,0,0,1,1.449,4.408,7.592,7.592,0,0,1-1.33,4.347,8.934,8.934,0,0,1-3.991,3.117,16.265,16.265,0,0,1-6.472,1.151A22.756,22.756,0,0,1,406.8,575.789Z" transform="translate(-344.876 -547.935)"/></g><g transform="translate(151.321 519.574)"><rect width="58.121" height="58.121" rx="12.75" fill="#199600"/><g transform="translate(10.302 21.937)"><path d="M171.66,570.379a18.033,18.033,0,0,1,12.868,5.353,18.242,18.242,0,0,1,5.335,12.956h7.492a25.778,25.778,0,0,0-25.7-25.8Z" transform="translate(-171.66 -562.887)" fill="#fff"/></g><g transform="translate(10.313 8.656)"><path d="M171.682,544.156a31.549,31.549,0,0,1,31.427,31.6H210.6a39.049,39.049,0,0,0-38.919-39.09Z" transform="translate(-171.682 -536.664)" fill="#fff"/></g><g transform="translate(9.077 37.368)"><path d="M181.5,597.789a.322.322,0,0,0-.3-.223l-4.154-.085-1.364-3.913a.323.323,0,0,0-.609,0l-1.364,3.913-4.154.085a.322.322,0,0,0-.187.58l3.31,2.5-1.2,3.964a.322.322,0,0,0,.493.359l3.41-2.366,3.411,2.366a.323.323,0,0,0,.493-.359l-1.2-3.964,3.31-2.5A.322.322,0,0,0,181.5,597.789Z" transform="translate(-169.242 -593.353)" fill="#fff"/></g></g></g></svg>