<svg xmlns="http://www.w3.org/2000/svg" viewBox="0 0 20 16"><defs><style>.a{fill:#9fa3a7;}</style></defs><path class="a" d="M20,10a3.12,3.12,0,0,1-2.18-.86,1.64,1.64,0,0,0-2.3,0,3.19,3.19,0,0,1-4.36,0A1.52,1.52,0,0,0,10,8.67a1.55,1.55,0,0,0-1.15.47,3.22,3.22,0,0,1-4.37,0,1.53,1.53,0,0,0-1.15-.48,1.53,1.53,0,0,0-1.16.48A3.18,3.18,0,0,1,0,10V7.33a1.53,1.53,0,0,0,1.15-.48A3.19,3.19,0,0,1,3.34,6a3.18,3.18,0,0,1,2.18.85,1.53,1.53,0,0,0,1.15.48,1.55,1.55,0,0,0,1.15-.47A3.21,3.21,0,0,1,10,6a3.12,3.12,0,0,1,2.18.86,1.52,1.52,0,0,0,1.15.47,1.55,1.55,0,0,0,1.15-.47A3.21,3.21,0,0,1,16.66,6a3.12,3.12,0,0,1,2.18.86A1.59,1.59,0,0,0,20,7.33Zm0-6a3.12,3.12,0,0,1-2.18-.86,1.64,1.64,0,0,0-2.3,0,3.19,3.19,0,0,1-4.36,0A1.52,1.52,0,0,0,10,2.67a1.55,1.55,0,0,0-1.15.47A3.16,3.16,0,0,1,6.67,4a4,4,0,0,1-2.18-.85,2.19,2.19,0,0,0-1.15-.48,1.53,1.53,0,0,0-1.16.48A3.18,3.18,0,0,1,0,4V1.33A1.53,1.53,0,0,0,1.15.85,3.19,3.19,0,0,1,3.34,0,3.18,3.18,0,0,1,5.52.85a1.53,1.53,0,0,0,1.15.48A1.55,1.55,0,0,0,7.82.86,3.21,3.21,0,0,1,10,0a3.12,3.12,0,0,1,2.18.86,1.52,1.52,0,0,0,1.15.47A1.55,1.55,0,0,0,14.48.86,3.21,3.21,0,0,1,16.66,0a3.12,3.12,0,0,1,2.18.86A1.59,1.59,0,0,0,20,1.33Zm0,12a3.12,3.12,0,0,1-2.18-.86,1.64,1.64,0,0,0-2.3,0,3.19,3.19,0,0,1-4.36,0A1.52,1.52,0,0,0,10,14.67a1.55,1.55,0,0,0-1.15.47A3.16,3.16,0,0,1,6.67,16a4,4,0,0,1-2.18-.85,2.19,2.19,0,0,0-1.15-.48,1.53,1.53,0,0,0-1.16.48A3.18,3.18,0,0,1,0,16V13.33a1.53,1.53,0,0,0,1.15-.48A3.19,3.19,0,0,1,3.34,12a3.18,3.18,0,0,1,2.18.85,1.53,1.53,0,0,0,1.15.48,1.55,1.55,0,0,0,1.15-.47A3.21,3.21,0,0,1,10,12a3.12,3.12,0,0,1,2.18.86,1.52,1.52,0,0,0,1.15.47,1.55,1.55,0,0,0,1.15-.47A3.21,3.21,0,0,1,16.66,12a3.12,3.12,0,0,1,2.18.86,1.59,1.59,0,0,0,1.16.47Z"/></svg>