<svg xmlns="http://www.w3.org/2000/svg" width="80" height="30" viewBox="0 0 80 30"><path d="M84,57a15.131,15.131,0,0,1-8.72-2.58,8.161,8.161,0,0,0-9.2,0A15.283,15.283,0,0,1,57.36,57a15.131,15.131,0,0,1-8.72-2.58A7.335,7.335,0,0,0,44.04,53a7.459,7.459,0,0,0-4.6,1.42A15.39,15.39,0,0,1,30.68,57a15.3,15.3,0,0,1-8.72-2.56A7.361,7.361,0,0,0,17.34,53a7.4,7.4,0,0,0-4.62,1.44A15.3,15.3,0,0,1,4,57V49a7.444,7.444,0,0,0,4.62-1.44A15.3,15.3,0,0,1,17.34,45a15.3,15.3,0,0,1,8.72,2.56A7.361,7.361,0,0,0,30.68,49a7.459,7.459,0,0,0,4.6-1.42A15.283,15.283,0,0,1,44,45a15.131,15.131,0,0,1,8.72,2.58A7.335,7.335,0,0,0,57.32,49a7.459,7.459,0,0,0,4.6-1.42A15.283,15.283,0,0,1,70.64,45a15.131,15.131,0,0,1,8.72,2.58A7.669,7.669,0,0,0,84,49Zm0-18a15.131,15.131,0,0,1-8.72-2.58,8.161,8.161,0,0,0-9.2,0A15.283,15.283,0,0,1,57.36,39a15.131,15.131,0,0,1-8.72-2.58A7.335,7.335,0,0,0,44.04,35a7.459,7.459,0,0,0-4.6,1.42A15.39,15.39,0,0,1,30.68,39a15.3,15.3,0,0,1-8.72-2.56A7.361,7.361,0,0,0,17.34,35a7.4,7.4,0,0,0-4.62,1.44A15.3,15.3,0,0,1,4,39V31a7.444,7.444,0,0,0,4.62-1.44A15.3,15.3,0,0,1,17.34,27a15.3,15.3,0,0,1,8.72,2.56A7.361,7.361,0,0,0,30.68,31a7.459,7.459,0,0,0,4.6-1.42A15.283,15.283,0,0,1,44,27a15.131,15.131,0,0,1,8.72,2.58A7.335,7.335,0,0,0,57.32,31a7.459,7.459,0,0,0,4.6-1.42A15.283,15.283,0,0,1,70.64,27a15.131,15.131,0,0,1,8.72,2.58A7.669,7.669,0,0,0,84,31Z" transform="translate(-4 -27)" fill="#0d70e3"/></svg>